<svg width="256" height="62" viewBox="0 0 256 62" fill="none" xmlns="http://www.w3.org/2000/svg">
<path fill-rule="evenodd" clip-rule="evenodd" d="M75.8293 40.6446V19.4472H84.089C85.1075 19.4472 86.0231 19.5563 86.7928 19.8194C87.5171 20.0452 88.1716 20.396 88.6717 20.9247C89.1362 21.3948 89.4598 21.9583 89.6277 22.5985C89.7736 23.1496 89.841 23.7286 89.841 24.3298V26.5605C89.841 27.3996 89.6878 28.1978 89.3654 28.939C89.3581 28.9557 89.3507 28.9723 89.3446 28.9888C89.9979 29.223 90.5825 29.5759 91.0323 30.0854C91.5042 30.5955 91.8057 31.2058 91.9405 31.8873C92.0766 32.4708 92.1403 33.0904 92.1403 33.7403V35.971C92.1403 36.5722 92.0729 37.1512 91.927 37.7024L91.9258 37.7103L91.9234 37.718C91.7493 38.3462 91.4147 38.8911 90.9404 39.3366C90.4538 39.8167 89.8067 40.1327 89.108 40.3481L89.0872 40.3543L89.0664 40.3597C88.3224 40.5602 87.4179 40.6446 86.3895 40.6446H75.8293ZM78.5527 28.5439V22.1721H84.089C84.8967 22.1721 85.4973 22.2487 85.9238 22.3703C86.3516 22.4927 86.5231 22.637 86.5857 22.7141C86.9276 23.1296 87.1176 23.645 87.1176 24.3298V26.5605C87.1176 26.8899 87.0808 27.2052 87.0097 27.5082L87.0036 27.5347L86.9987 27.5614C86.9791 27.6682 86.9239 27.7956 86.7683 27.9509C86.6702 28.0495 86.4472 28.2021 86.001 28.3536C85.5978 28.4677 84.9764 28.5439 84.089 28.5439H78.5527ZM78.5527 31.2689H86.4239C87.2267 31.2689 87.815 31.3506 88.2243 31.4772C88.6313 31.6032 88.7869 31.7491 88.8458 31.8289L88.8531 31.8392L88.8605 31.8493C89.2073 32.3014 89.4169 32.9047 89.4169 33.7403V35.971C89.4169 36.682 89.2269 37.1377 88.9401 37.4552C88.8825 37.5107 88.7048 37.6372 88.266 37.7446C87.8236 37.8533 87.2058 37.9196 86.3895 37.9196H78.5527V31.2689ZM102.649 22.1721H109.057C110.08 22.1721 110.596 22.4479 110.874 22.7705L110.882 22.7793L110.889 22.7879C111.264 23.2053 111.492 23.7765 111.492 24.6087V27.0484C111.492 28.198 111.269 28.9095 110.975 29.3296C110.828 29.5396 110.377 29.8684 109.057 29.8684H102.649V22.1721ZM112.952 21.0097C112.006 19.8992 110.623 19.4472 109.057 19.4472H99.9256V40.6446H102.649V32.5584H111.321C112.504 32.5584 113.127 32.8227 113.441 33.1135L113.449 33.1217L113.458 33.1297C113.751 33.3896 114.001 33.8602 114.001 34.7859V40.6446H116.724V34.7859C116.724 33.3479 116.303 32.0697 115.294 31.1565C114.83 30.7252 114.279 30.4171 113.668 30.2105C113.681 30.1797 113.695 30.1483 113.707 30.1167L113.711 30.1102L113.713 30.1038C114.066 29.2204 114.215 28.1746 114.215 27.0136V24.6087C114.215 23.232 113.816 22.0014 112.952 21.0097ZM126.903 31.9249C126.908 31.4082 126.949 30.9399 127.021 30.5174C127.125 30.0426 127.248 29.6048 127.388 29.2029L129.606 23.5164C129.606 23.5149 129.607 23.5133 129.607 23.5118C129.814 22.9956 130.028 22.5964 130.24 22.2965L130.248 22.2835L130.258 22.2703V22.2692C130.263 22.2626 130.27 22.2508 130.312 22.2328C130.37 22.2082 130.497 22.1721 130.732 22.1721H134.147C134.349 22.1721 134.452 22.205 134.495 22.2243C134.527 22.2386 134.538 22.2497 134.553 22.2703L134.561 22.2835L134.57 22.2965C134.786 22.6024 135.015 23.0214 135.248 23.573V23.5732L137.636 29.2181C137.77 29.6062 137.878 30.0306 137.959 30.4934L137.962 30.5179L137.969 30.5423C138.058 30.9539 138.108 31.4135 138.114 31.9249H126.903ZM136.717 20.6077C136.106 19.7314 135.117 19.4472 134.147 19.4472H130.732C129.741 19.4472 128.739 19.7292 128.105 20.5927C127.704 21.1366 127.367 21.7793 127.084 22.5012V22.5025L127.082 22.5037L124.848 28.2327L124.843 28.2457C124.637 28.8127 124.47 29.402 124.344 30.0127L124.339 30.0319L124.337 30.0514C124.23 30.6648 124.179 31.3267 124.179 32.0325V40.6446H126.903V34.6497H138.116V40.6446H140.839V32.0325C140.839 31.3235 140.777 30.6544 140.644 30.0313C140.54 29.4148 140.384 28.8191 140.176 28.2457L140.165 28.2168L137.753 22.5162C137.752 22.515 137.752 22.5136 137.752 22.5122C137.45 21.7852 137.108 21.1432 136.717 20.6077ZM152.04 20.074L152.065 20.0987L162.833 32.2185V19.4472H165.557V40.6446H162.833V36.3192L151.795 23.9332V40.6446H149.072V21.0187C149.072 20.5895 149.232 20.0948 149.686 19.7545C149.932 19.5697 150.269 19.4123 150.677 19.4123C150.978 19.4123 151.294 19.491 151.579 19.6816C151.75 19.7953 151.91 19.9445 152.04 20.074ZM187.748 37.9196V40.6446H180.741C179.562 40.6446 178.527 40.5541 177.659 40.3523C176.802 40.153 176.018 39.824 175.436 39.2776L175.428 39.2711L175.422 39.2646C174.364 38.2407 173.979 36.6987 173.979 34.9602V25.2012C173.979 23.4196 174.374 21.8419 175.47 20.8141C176.051 20.2694 176.832 19.9398 177.683 19.7399C178.546 19.5377 179.573 19.4472 180.741 19.4472H187.748V22.1721H180.741C179.776 22.1721 179.017 22.2498 178.444 22.3845C177.865 22.521 177.55 22.6987 177.392 22.8416L177.384 22.8488L177.376 22.8558C177.037 23.1512 176.704 23.8069 176.704 25.2012V34.9602C176.704 36.3343 177.026 36.9877 177.356 37.2836C177.493 37.4078 177.796 37.5797 178.389 37.7134C178.971 37.8443 179.747 37.9196 180.741 37.9196H187.748ZM195.194 40.6446V19.4472H197.919V28.6834H208.922V19.4472H211.646V40.6446H208.922V31.4083H197.919V40.6446H195.194ZM234.737 37.9196V40.6446H220.62V19.4472H234.737V22.1721H223.345V28.5439H231.915V31.2689H223.345V37.9196H234.737ZM255.408 19.4472V22.1721H246.485C245.734 22.1721 245.268 22.3722 244.956 22.66C244.627 22.9617 244.468 23.3147 244.468 23.807V26.665C244.468 26.9993 244.502 27.2283 244.544 27.3755C244.576 27.4852 244.605 27.5277 244.61 27.5353C244.734 27.6572 244.925 27.7713 245.261 27.8297L245.278 27.8325L252.642 29.3339C252.642 29.334 252.643 29.3343 252.644 29.3344C253.547 29.5157 254.34 29.9216 254.967 30.5764C255.771 31.3897 256 32.6361 256 33.9147V35.9361C256 37.261 255.534 38.4238 254.593 39.3348L254.586 39.342L254.577 39.3491C253.61 40.2519 252.354 40.6446 250.945 40.6446H241.083V37.9196H250.945C251.792 37.9196 252.325 37.6946 252.681 37.3647C253.077 36.9971 253.277 36.552 253.277 35.9361V33.9147C253.277 32.8736 253.069 32.5613 253.031 32.5242L253.007 32.4995L252.984 32.4734C252.811 32.2786 252.544 32.1074 252.095 32.0104C252.094 32.01 252.091 32.0097 252.09 32.0093L244.763 30.5157C244.761 30.5152 244.758 30.5147 244.756 30.5143C243.982 30.3643 243.28 30.0523 242.703 29.5427L242.676 29.5181L242.649 29.4919C241.932 28.774 241.744 27.6999 241.744 26.665V23.807C241.744 22.5679 242.193 21.4842 243.109 20.6626C244.02 19.8201 245.186 19.4472 246.485 19.4472H255.408Z" fill="#002E76"/>
<path d="M28.6378 0.87529C29.8239 -0.299624 31.7378 -0.290553 32.9129 0.895512L60.3947 28.6378C61.5702 29.8239 61.5604 31.7378 60.3745 32.9129L32.6321 60.3947C31.4461 61.5702 29.5321 61.5604 28.3571 60.3745L24.9304 56.9153C24.3429 56.3223 24.3474 55.3653 24.9405 54.7778L40.8976 38.9705C41.2517 38.6197 41.7562 38.4831 42.2545 38.4933C43.4833 38.5187 44.7206 38.0654 45.6627 37.1322C47.5084 35.3039 47.5225 32.3254 45.694 30.4798C43.8657 28.6341 40.8873 28.6201 39.0417 30.4485C37.9942 31.486 37.5367 32.8939 37.671 34.2549C37.7259 34.8105 37.5983 35.389 37.2017 35.7819L21.5158 51.3206C20.9227 51.908 19.9657 51.9035 19.3782 51.3104L10.0956 41.9399C9.50811 41.3468 9.51264 40.3898 10.1057 39.8023L25.8885 24.1677C26.2685 23.7912 26.8185 23.6626 27.3519 23.7025C28.6688 23.8013 30.0198 23.3503 31.0318 22.348C32.8852 20.5119 32.8993 17.521 31.0633 15.6675C29.2271 13.814 26.2362 13.7999 24.3827 15.636C23.3583 16.6508 22.8957 18.0185 22.9971 19.352C23.038 19.8924 22.906 20.4502 22.5209 20.8317L6.76983 36.4348C6.17674 37.0223 5.21982 37.0178 4.63237 36.4247L0.87529 32.6321C-0.299624 31.4461 -0.290553 29.5321 0.895512 28.3571L28.6378 0.87529Z" fill="url(#paint0_angular)"/>
<defs>
<radialGradient id="paint0_angular" cx="0" cy="0" r="1" gradientUnits="userSpaceOnUse" gradientTransform="translate(30.635 30.635) rotate(135) scale(22.6397)">
<stop stop-color="#00193F"/>
<stop offset="1" stop-color="#0065FF"/>
</radialGradient>
</defs>
</svg>
