<svg width="17" height="17" viewBox="0 0 17 17" fill="none" xmlns="http://www.w3.org/2000/svg">
<path fill-rule="evenodd" clip-rule="evenodd" d="M1.49312 0C0.668493 0 0 0.668495 0 1.49312V15.5069C0 16.3315 0.668495 17 1.49312 17H15.5069C16.3315 17 17 16.3315 17 15.5069V1.49312C17 0.668493 16.3315 0 15.5069 0H1.49312ZM11.6205 11.0358V17H8.98578V11.0358H6.87798V8.40104H8.98578V6.82019C8.98578 4.64969 10.2109 3.13155 12.1475 3.13155H14.2553V5.7663H13.2014C12.1485 5.7663 11.6205 6.29324 11.6205 7.34714V8.40104H14.2553L13.7283 11.0358H11.6205Z" fill="#002E76"/>
</svg>
