<svg width="13" height="12" viewBox="0 0 13 12" fill="none" xmlns="http://www.w3.org/2000/svg">
<path d="M12.4545 1.09088H0.545454C0.244208 1.09088 0 1.33509 0 1.63633C0 1.93758 0.244208 2.18179 0.545454 2.18179H12.4545C12.7558 2.18179 13 1.93758 13 1.63633C13 1.33509 12.7558 1.09088 12.4545 1.09088Z" fill="#002E76"/>
<path d="M12.4545 5.45453H0.545454C0.244208 5.45453 0 5.69874 0 5.99998C0 6.30123 0.244208 6.54544 0.545454 6.54544H12.4545C12.7558 6.54544 13 6.30123 13 5.99998C13 5.69874 12.7558 5.45453 12.4545 5.45453Z" fill="#002E76"/>
<path d="M12.4545 9.81818H0.545454C0.244208 9.81818 0 10.0624 0 10.3636C0 10.6649 0.244208 10.9091 0.545454 10.9091H12.4545C12.7558 10.9091 13 10.6649 13 10.3636C13 10.0624 12.7558 9.81818 12.4545 9.81818Z" fill="#002E76"/>
<path d="M7.04166 0.499983C6.42362 0.499983 5.91666 1.00546 5.91666 1.63634C5.91666 2.26723 6.42362 2.7727 7.04166 2.77271C7.65971 2.77271 8.16666 2.26723 8.16666 1.63634C8.16666 1.00546 7.65971 0.499984 7.04166 0.499983Z" fill="#F3F4F6" stroke="#002E76"/>
<path d="M2.70834 4.86363C2.09029 4.86363 1.58334 5.36911 1.58334 5.99999C1.58334 6.63088 2.09029 7.13635 2.70834 7.13635C3.32638 7.13635 3.83334 6.63088 3.83334 5.99999C3.83334 5.36911 3.32638 4.86363 2.70834 4.86363Z" fill="#F3F4F6" stroke="#002E76"/>
<path d="M10.2917 9.22728C9.67362 9.22728 9.16666 9.73275 9.16666 10.3636C9.16666 10.9945 9.67362 11.5 10.2917 11.5C10.9097 11.5 11.4167 10.9945 11.4167 10.3636C11.4167 9.73275 10.9097 9.22728 10.2917 9.22728Z" fill="#F3F4F6" stroke="#002E76"/>
</svg>
