<svg width="59" height="59" viewBox="0 0 59 59" fill="none" xmlns="http://www.w3.org/2000/svg">
<path fill-rule="evenodd" clip-rule="evenodd" d="M0 5.20588C0 2.33075 2.33075 0 5.20588 0H53.7941C56.6692 0 59 2.33075 59 5.20588V53.7941C59 56.6692 56.6692 59 53.7941 59H5.20588C2.33075 59 0 56.6692 0 53.7941V5.20588ZM52.0588 50.3235V26.2362C50.6214 26.7007 49.1629 27.1183 47.6852 27.4874C47.7087 27.866 47.7206 28.2478 47.7206 28.6324C47.7206 38.6953 39.563 46.8529 29.5 46.8529C19.437 46.8529 11.2794 38.6953 11.2794 28.6324C11.2794 27.927 11.3195 27.231 11.3975 26.5465C9.88897 26.0847 8.40285 25.5716 6.94118 25.0092V50.3235C6.94118 51.2819 7.71809 52.0588 8.67647 52.0588H50.3235C51.2819 52.0588 52.0588 51.2819 52.0588 50.3235ZM18.2206 28.6324C18.2206 34.8618 23.2706 39.9118 29.5 39.9118C35.6625 39.9118 40.6707 34.9698 40.7776 28.8329C40.7788 28.7662 40.7794 28.6993 40.7794 28.6324C40.7794 22.4029 35.7294 17.3529 29.5 17.3529C23.3981 17.3529 18.4278 22.1983 18.2269 28.2513C18.2227 28.3778 18.2206 28.5048 18.2206 28.6324ZM46.5882 8.94118C44.6715 8.94118 43.1176 10.495 43.1176 12.4118C43.1176 14.3285 44.6715 15.8824 46.5882 15.8824C48.505 15.8824 50.0588 14.3285 50.0588 12.4118C50.0588 10.495 48.505 8.94118 46.5882 8.94118Z" fill="#002E76"/>
</svg>
